Coordinates
version=1
nRows=60
nColumns=12
inDegrees=yes

Units are S.I. units (second, meters, Newtons, ...)
Angles are in degrees

endheader
time	SC_y	SC_z	SC_x	AC_y	AC_z	AC_x	GH_y	GH_z	GH_yy	EL_x	PS_y
       0.0              -25.01         -2.221           74.7          59.89         -13.73         -9.502          54.45          44.68          6.359          35.24          125.2
  0.005115              -25.02         -2.217           74.7          59.89         -13.73         -9.502          54.42          44.68          6.354          35.24          125.2
   0.01023              -25.02         -2.212          74.69          59.88         -13.73         -9.503           54.4          44.68          6.349          35.25          125.2
   0.01534              -25.03         -2.208          74.69          59.88         -13.73         -9.503          54.37          44.68          6.343          35.25          125.2
   0.02046              -25.03         -2.203          74.69          59.88         -13.73         -9.503          54.34          44.69          6.337          35.26          125.2
   0.02557              -25.03         -2.198          74.68          59.88         -13.73         -9.504          54.31          44.69           6.33          35.26          125.2
   0.03069              -25.04         -2.193          74.68          59.87         -13.73         -9.504          54.28          44.69          6.324          35.27          125.2
    0.0358              -25.05         -2.187          74.67          59.87         -13.73         -9.505          54.24          44.69          6.316          35.27          125.2
   0.04092              -25.05          -2.18          74.67          59.87         -13.73         -9.505          54.21           44.7          6.309          35.28          125.2
   0.04603              -25.06         -2.174          74.66          59.86         -13.74         -9.506          54.17           44.7            6.3          35.29          125.2
   0.05115              -25.06         -2.167          74.66          59.86         -13.74         -9.506          54.12           44.7          6.291          35.29          125.2
   0.05626              -25.07         -2.159          74.65          59.85         -13.74         -9.507          54.08           44.7          6.281           35.3          125.2
   0.06138              -25.08         -2.151          74.65          59.85         -13.74         -9.508          54.03          44.71          6.271          35.31          125.2
   0.06649              -25.09         -2.142          74.64          59.84         -13.74         -9.508          53.97          44.71           6.26          35.32          125.2
   0.07161               -25.1         -2.132          74.63          59.84         -13.74         -9.509          53.91          44.72          6.247          35.33          125.2
   0.07672              -25.11         -2.121          74.62          59.83         -13.75          -9.51          53.85          44.72          6.234          35.34          125.2
   0.08184              -25.12          -2.11          74.61          59.82         -13.75         -9.511          53.78          44.73           6.22          35.35          125.2
   0.08695              -25.13         -2.097           74.6          59.81         -13.75         -9.512          53.71          44.73          6.204          35.36          125.2
   0.09207              -25.14         -2.084          74.59          59.81         -13.75         -9.513          53.63          44.74          6.187          35.38          125.2
   0.09718              -25.15         -2.069          74.58           59.8         -13.76         -9.514          53.54          44.74          6.168          35.39          125.2
    0.1023              -25.17         -2.052          74.57          59.79         -13.76         -9.515          53.44          44.75          6.147          35.41          125.2
    0.1074              -25.18         -2.034          74.56          59.78         -13.77         -9.517          53.33          44.76          6.125          35.43          125.2
    0.1125               -25.2         -2.014          74.54          59.76         -13.77         -9.518          53.21          44.77            6.1          35.45          125.2
    0.1176              -25.22         -1.992          74.53          59.75         -13.77          -9.52          53.08          44.78          6.072          35.47          125.2
    0.1228              -25.25         -1.967          74.51          59.74         -13.78         -9.522          52.93          44.79          6.041          35.49          125.2
    0.1279              -25.27          -1.94          74.49          59.72         -13.78         -9.524          52.76           44.8          6.006          35.52          125.2
     0.133               -25.3         -1.909          74.46           59.7         -13.79         -9.527          52.58          44.81          5.968          35.55          125.2
    0.1381              -25.33         -1.875          74.44          59.68          -13.8          -9.53          52.37          44.83          5.924          35.59          125.2
    0.1432              -25.37         -1.836          74.41          59.66         -13.81         -9.533          52.14          44.85          5.875          35.62          125.2
    0.1483              -25.41         -1.791          74.37          59.63         -13.82         -9.536          51.87          44.86           5.82          35.67          125.2
    0.1534              -25.45         -1.741          74.33           59.6         -13.83          -9.54          51.57          44.89          5.756          35.72          125.2
    0.1586              -25.51         -1.683          74.29          59.56         -13.84         -9.545          51.22          44.91          5.683          35.78          125.2
    0.1637              -25.57         -1.615          74.24          59.52         -13.85          -9.55          50.82          44.94          5.599          35.84          125.3
    0.1688              -25.64         -1.538          74.18          59.47         -13.87         -9.556          50.35          44.98          5.501          35.92          125.3
    0.1739              -25.72         -1.446          74.11          59.42         -13.89         -9.564           49.8          45.02          5.386          36.01          125.3
     0.179              -25.82         -1.339          74.03          59.35         -13.91         -9.572          49.16          45.06          5.251          36.12          125.3
    0.1841              -25.94         -1.211          73.93          59.27         -13.94         -9.582          48.39          45.12          5.091          36.25          125.3
    0.1892              -26.08         -1.058          73.82          59.18         -13.97         -9.595          47.47          45.19          4.898           36.4          125.3
    0.1944              -26.25        -0.8726          73.68          59.07         -14.01         -9.609          46.36          45.27          4.666          36.58          125.3
    0.1995              -26.45        -0.6462           73.5          58.93         -14.05         -9.627           45.0          45.36          4.381          36.81          125.3
    0.2046              -26.71        -0.3669          73.29          58.76         -14.11          -9.65          43.33          45.49           4.03          37.09          125.3
    0.2097              -27.03        -0.0185          73.03          58.55         -14.18         -9.677          41.24          45.64          3.593          37.43          125.4
    0.2148              -27.43         0.4203           72.7          58.28         -14.27         -9.712          38.61          45.83          3.042          37.87          125.4
    0.2199              -27.94         0.9782          72.27          57.94         -14.39         -9.757          35.26          46.07          2.341          38.43          125.4
    0.2251              -28.59          1.692          71.73          57.51         -14.54         -9.814          30.98          46.39          1.444          39.14          125.5
    0.2302              -29.43          2.609          71.04          56.95         -14.73         -9.887          25.48          46.79          0.293          40.05          125.5
    0.2353               -30.5          3.779          70.15          56.24         -14.97          -9.98          18.46           47.3         -1.177          41.22          125.6
    0.2404              -31.85          5.251          69.03          55.34         -15.28          -10.1          9.638          47.94         -3.026          42.68          125.7
    0.2455              -33.49          7.044          67.67          54.25         -15.65         -10.24         -1.119          48.72         -5.279          44.47          125.8
    0.2506              -35.39          9.123           66.1          52.98         -16.08         -10.41         -13.59          49.63          -7.89          46.54          125.9
    0.2557              -37.44          11.37          64.39          51.61         -16.55         -10.58         -27.09          50.61         -10.72          48.78          126.1
    0.2609               -39.5          13.63          62.68          50.24         -17.02         -10.76         -40.59          51.59         -13.54          51.02          126.2
     0.266               -41.4           15.7           61.1          48.97         -17.45         -10.93         -53.06           52.5         -16.16           53.1          126.3
    0.2711              -43.04           17.5          59.74          47.88         -17.82         -11.07         -63.81          53.28         -18.41          54.88          126.4
    0.2762              -44.39          18.97          58.63          46.98         -18.12         -11.19         -72.64          53.93         -20.26          56.35          126.5
    0.2813              -45.46          20.14          57.74          46.27         -18.37         -11.28         -79.66          54.44         -21.73          57.51          126.6
    0.2864               -46.3          21.06          57.05          45.71         -18.56         -11.36         -85.15          54.84         -22.88          58.43          126.7
    0.2915              -46.95          21.77           56.5          45.28         -18.71         -11.41         -89.44          55.15         -23.78          59.14          126.7
    0.2967              -47.46          22.33          56.08          44.94         -18.82         -11.46         -92.78          55.39         -24.48          59.69          126.7
    0.3018              -47.86          22.77          55.75          44.67         -18.91         -11.49         -95.41          55.59         -25.03          60.13          126.8
